<svg xmlns="http://www.w3.org/2000/svg"> 
  <symbol id="search" width="58" height="57" viewBox="0 0 58 57" fill="none" xmlns="http://www.w3.org/2000/svg">
  <path fill-rule="evenodd" clip-rule="evenodd" d="M57.2657 53.8123L54.3124 56.7656L38 40.4528C37.0617 41.2968 36.0312 42.0483 34.9062 42.703C33.7812 43.3601 32.6079 43.9224 31.3906 44.3906C30.1712 44.8608 28.8813 45.2123 27.5234 45.4452C26.1633 45.6802 24.8273 45.7968 23.5156 45.7968C20.3273 45.7968 17.3501 45.1881 14.5859 43.9685C11.8196 42.7514 9.40473 41.1099 7.34373 39.0466C5.28045 36.9856 3.66327 34.571 2.49213 31.8046C1.31883 29.0404 0.734314 26.1093 0.734314 23.0155C0.734314 19.8295 1.31883 16.8521 2.49213 14.0859C3.66327 11.3218 5.28045 8.90689 7.34373 6.84361C9.40473 4.78256 11.8196 3.16525 14.5859 1.99198C17.3501 0.820945 20.3273 0.234131 23.5156 0.234131C26.6094 0.234131 29.5383 0.820945 32.3047 1.99198C35.0688 3.16525 37.4836 4.78256 39.5469 6.84361C41.6079 8.90689 43.2493 11.3218 44.4687 14.0859C45.686 16.8521 46.2968 19.8295 46.2968 23.0155C46.2968 24.3293 46.1781 25.6653 45.9453 27.0232C45.7101 28.3834 45.3585 29.6733 44.8906 30.8904C44.4203 32.1101 43.8579 33.2811 43.2032 34.406C42.5461 35.531 41.7968 36.5638 40.9531 37.4998L57.2657 53.8123ZM3.12495 23.0155C3.12495 25.828 3.63915 28.4537 4.67181 30.8904C5.70231 33.3295 7.15479 35.4849 9.03123 37.3593C10.9055 39.2358 13.0851 40.7123 15.5703 41.7888C18.0531 42.8677 20.703 43.4061 23.5156 43.4061C26.3281 43.4061 28.9516 42.8677 31.3906 41.7888C33.8273 40.7123 35.9829 39.2358 37.8593 37.3593C39.7337 35.4849 41.2101 33.3295 42.2891 30.8904C43.3657 28.4537 43.9062 25.828 43.9062 23.0155C43.9062 20.203 43.3657 17.5552 42.2891 15.07C41.2101 12.5872 39.7337 10.4076 37.8593 8.53112C35.9829 6.65675 33.8273 5.20441 31.3906 4.17161C28.9516 3.14112 26.3281 2.62481 23.5156 2.62481C20.703 2.62481 18.0531 3.14112 15.5703 4.17161C13.0851 5.20441 10.9055 6.65675 9.03123 8.53112C7.15479 10.4076 5.70231 12.5872 4.67181 15.07C3.63915 17.5552 3.12495 20.203 3.12495 23.0155Z" fill="#5474FD"/>
  </symbol>
  <symbol id="select" width="60" height="61" viewBox="0 0 60 61" fill="none" xmlns="http://www.w3.org/2000/svg">
  <path fill-rule="evenodd" clip-rule="evenodd" d="M30 0.546875C34.1242 0.546875 38.0156 1.32026 41.6718 2.86704C45.3281 4.41407 48.5141 6.54763 51.2343 9.26545C53.9523 11.9858 56.0859 15.1718 57.6328 18.8282C59.1796 22.4843 59.9531 26.3757 59.9531 30.5C59.9531 34.6263 59.1796 38.5154 57.6328 42.1719C56.0859 45.828 53.9523 49.0162 51.2343 51.7343C48.5141 54.4544 45.3281 56.5859 41.6718 58.1327C38.0156 59.6795 34.1242 60.4531 30 60.4531C25.8735 60.4531 21.9843 59.6795 18.3281 58.1327C14.6718 56.5859 11.4836 54.4544 8.76563 51.7343C6.04544 49.0162 3.914 45.828 2.36716 42.1719C0.820264 38.5154 0.046814 34.6263 0.046814 30.5C0.046814 26.3757 0.820264 22.4843 2.36716 18.8282C3.914 15.1718 6.04544 11.9858 8.76563 9.26545C11.4836 6.54763 14.6718 4.41407 18.3281 2.86704C21.9843 1.32026 25.8735 0.546875 30 0.546875ZM30 58.0625C33.843 58.0625 37.4288 57.3374 40.7578 55.8828C44.0844 54.4302 47.0156 52.4858 49.5469 50.0467C51.9836 47.5156 53.9282 44.5867 55.3827 41.2577C56.8352 37.931 57.5625 34.3451 57.5625 30.5C57.5625 26.657 56.8352 23.0708 55.3827 19.742C53.9282 16.4153 51.9836 13.4842 49.5469 10.953C47.0156 8.51625 44.0844 6.57182 40.7578 5.11721C37.4288 3.66462 33.843 2.93728 30 2.93728C26.1548 2.93728 22.5688 3.66462 19.2421 5.11721C15.9132 6.57182 12.9843 8.51625 10.453 10.953C8.01412 13.4842 6.06956 16.4153 4.61721 19.742C3.16256 23.0708 2.43741 26.657 2.43741 30.5C2.43741 34.3451 3.16256 37.931 4.61721 41.2577C6.06956 44.5867 8.01412 47.5156 10.453 50.0467C12.9843 52.4858 15.9132 54.4302 19.2421 55.8828C22.5688 57.3374 26.1548 58.0625 30 58.0625ZM45.0468 19.8123C45.3281 19.4389 45.7258 19.25 46.2421 19.25C46.7563 19.25 47.2023 19.4389 47.5781 19.8123C47.8594 20.1881 48 20.6341 48 21.1483C48 21.6646 47.8109 22.0625 47.4375 22.3438L26.9063 42.3123C26.8117 42.5013 26.6469 42.6178 26.414 42.6639C26.1789 42.7123 25.968 42.7342 25.7812 42.7342C25.4999 42.7342 25.2407 42.7123 25.0078 42.6639C24.7727 42.6178 24.6079 42.5013 24.5155 42.3123L16.4999 34.2967C16.1242 33.9232 15.9375 33.4772 15.9375 32.9609C15.9375 32.4467 16.1242 32.0467 16.4999 31.7655C16.7812 31.392 17.179 31.2031 17.6953 31.2031C18.2095 31.2031 18.6554 31.392 19.0312 31.7655L25.7812 38.5154L45.0468 19.8123Z" fill="#FF6363"/>
  </symbol>
  <symbol id="book" width="62" height="59" viewBox="0 0 62 59" fill="none" xmlns="http://www.w3.org/2000/svg">
  <path fill-rule="evenodd" clip-rule="evenodd" d="M61.5859 28.656C61.5859 29.3131 61.4914 29.9217 61.3046 30.4841C61.1157 31.0467 60.8345 31.563 60.4609 32.0311C60.0852 32.5014 59.6633 32.8748 59.1954 33.1561C58.7251 33.4374 58.211 33.6724 57.6485 33.8592C57.9296 34.3294 58.1626 34.8217 58.3515 35.3357C58.5383 35.8523 58.6328 36.4388 58.6328 37.0936C58.6328 37.6562 58.5383 38.2185 58.3515 38.7811C58.1626 39.3437 57.9296 39.86 57.6485 40.3279C57.2727 40.7036 56.8508 41.0552 56.3828 41.3826C55.9125 41.7122 55.4445 41.9693 54.9765 42.1562C55.2578 42.6264 55.4907 43.1404 55.6797 43.703C55.8664 44.2656 55.9609 44.8279 55.9609 45.3905C55.9609 46.0473 55.8664 46.6341 55.6797 47.1484C55.4907 47.6646 55.2578 48.1567 54.9765 48.6249C54.6008 49.0951 54.179 49.4927 53.7109 49.82C53.2407 50.1497 52.7265 50.3608 52.1641 50.4529C52.5376 50.9231 52.8188 51.4155 53.0078 51.9294C53.1946 52.446 53.289 53.0325 53.289 53.6873C53.289 54.3443 53.1484 55.0014 52.8672 55.6561C52.5859 56.3132 52.2102 56.8755 51.7421 57.3437C51.1797 57.8139 50.5688 58.1874 49.914 58.4686C49.2571 58.75 48.554 58.8904 47.8046 58.8904H29.2421C28.5852 58.8904 27.8359 58.7983 26.9922 58.6092C26.1484 58.4226 25.2563 58.1412 24.3203 57.7655C23.382 57.4842 22.4438 57.1327 21.5078 56.7108C20.5696 56.289 19.6313 55.8911 18.6953 55.5154C17.5703 55.0474 16.4672 54.5796 15.3906 54.1091C14.3118 53.6412 13.5383 53.406 13.0702 53.406H0.273438V25.9843L1.39843 25.8435C6.74217 25.8435 10.3984 25.8435 12.3672 25.8435C13.2109 25.8435 13.9843 25.7513 14.6875 25.5622C15.3906 25.3756 16.1157 24.9999 16.8672 24.4373C17.7109 23.9693 18.6711 23.3123 19.75 22.4687C20.8267 21.6247 22.1164 20.5943 23.6171 19.3749C26.5219 16.9381 28.2336 13.8904 28.75 10.2342C29.2642 6.57806 29.5234 4.46868 29.5234 3.90608C29.5234 3.34347 29.664 2.80533 29.9453 2.28878C30.2265 1.7748 30.6001 1.37488 31.0704 1.09355C31.5383 0.720107 32.0304 0.460735 32.5468 0.320191C33.061 0.179403 33.5532 0.109131 34.0235 0.109131C34.7726 0.109131 35.5219 0.20362 36.2734 0.390463C37.0227 0.579319 37.7257 1.00144 38.3828 1.65615C39.0376 2.313 39.554 3.18103 39.9297 4.25762C40.3033 5.33653 40.4922 6.76698 40.4922 8.54665C40.4922 10.1418 40.3735 11.6647 40.1406 13.117C39.9055 14.5716 39.6001 15.9537 39.2265 17.2655C38.9453 18.5793 38.5937 19.7748 38.1719 20.8514C37.75 21.9302 37.3984 22.8444 37.1172 23.5936H56.2421C57.0859 23.5936 57.811 23.7122 58.4219 23.9452C59.0306 24.1802 59.6172 24.5317 60.1797 24.9999C60.6477 25.4701 60.9993 26.0084 61.2343 26.6169C61.4673 27.2279 61.5859 27.9068 61.5859 28.656ZM56.2421 31.6093C56.7102 31.6093 57.1321 31.5388 57.5078 31.3983C57.8814 31.2577 58.1626 31.0467 58.3515 30.7654C58.6328 30.4841 58.8658 30.1809 59.0547 29.8515C59.2414 29.5241 59.3359 29.1262 59.3359 28.656C59.3359 27.9068 59.0547 27.2498 58.4922 26.6874C57.9296 26.1248 57.1782 25.8435 56.2421 25.8435H47.8046C47.8046 25.9379 47.8046 25.9379 47.8046 25.8435H33.3203L34.164 24.1559C36.7876 17.6873 38.1016 12.4841 38.1016 8.54665C38.1016 5.45285 37.5852 3.64896 36.5547 3.13272C35.5219 2.61843 34.6782 2.3593 34.0235 2.3593C33.7421 2.3593 33.3203 2.49984 32.7578 2.78111C32.1952 3.06245 31.9141 3.43821 31.9141 3.90608C31.9141 4.46868 31.8657 5.4068 31.7734 6.7186C31.679 8.03267 31.3977 9.53107 30.9297 11.2186C30.4594 12.9062 29.7805 14.6419 28.8905 16.4218C27.9986 18.2036 26.757 19.7506 25.164 21.0624C23.5689 22.3763 22.2329 23.477 21.1563 24.367C20.0773 25.259 19.0688 25.9843 18.1328 26.5467C17.1945 27.1093 16.2563 27.5311 15.3203 27.8124C14.382 28.0937 13.3977 28.2342 12.3672 28.2342C11.6157 28.2342 10.7962 28.2342 9.90621 28.2342C9.01411 28.2342 8.10013 28.2342 7.164 28.2342C6.32029 28.2342 5.49846 28.2342 4.70313 28.2342C3.90544 28.2342 3.22653 28.2342 2.66403 28.2342V51.0155H13.0702C13.725 51.0155 14.593 51.2263 15.6719 51.6482C16.7485 52.0702 18.0844 52.6107 19.6796 53.2654C20.429 53.6412 21.2485 54.0388 22.1406 54.4607C23.0305 54.8827 23.8984 55.2343 24.7422 55.5154C25.6782 55.7966 26.5219 56.0561 27.2734 56.289C28.0227 56.5239 28.6796 56.6406 29.2421 56.6406H44.8515H47.8046C48.2726 56.6406 48.6946 56.5482 49.0703 56.3592C49.4438 56.1724 49.7734 55.9374 50.0547 55.6561C50.3359 55.4693 50.5468 55.188 50.6875 54.8122C50.8281 54.4388 50.8984 54.063 50.8984 53.6873C50.8984 53.2194 50.8281 52.8217 50.6875 52.492C50.5468 52.1647 50.3359 51.8592 50.0547 51.5779C49.7734 51.2969 49.4438 51.0858 49.0703 50.9453C48.6946 50.8045 48.2726 50.7343 47.8046 50.7343H47.5234V48.3435H50.7577C51.1314 48.3435 51.507 48.2733 51.8828 48.1328C52.2563 47.992 52.5859 47.7812 52.8672 47.4999C53.0539 47.2186 53.2407 46.8913 53.4297 46.5155C53.6165 46.142 53.7109 45.7663 53.7109 45.3905C53.7109 45.0168 53.6165 44.6411 53.4297 44.2656C53.2407 43.8919 53.0539 43.5625 52.8672 43.2812C52.5859 43.0943 52.2563 42.9075 51.8828 42.7185C51.507 42.5319 51.1314 42.4373 50.7577 42.4373H49.7734V40.0468H53.289C53.6626 40.0468 54.0383 39.9763 54.414 39.8358C54.7876 39.6953 55.1172 39.4842 55.3984 39.2029C55.6797 38.9216 55.9125 38.5942 56.1016 38.2185C56.2883 37.845 56.3827 37.4693 56.3827 37.0936C56.3827 36.6256 56.2883 36.2038 56.1016 35.828C55.9125 35.4544 55.6797 35.1733 55.3984 34.9842C55.1172 34.7028 54.7876 34.4702 54.414 34.281C54.0383 34.0944 53.6626 33.9998 53.289 33.9998H52.1641V31.6093H56.2421Z" fill="#00A2FF"/>
  </symbol>
</svg>

